<svg width="497" height="310" viewBox="0 0 497 310" fill="none" xmlns="http://www.w3.org/2000/svg">
<path d="M-162.5 155C-162.5 240.331 -93.7096 309.5 -8.85825 309.5C75.9931 309.5 144.783 240.331 144.783 155C144.783 69.6694 75.9931 0.5 -8.85825 0.5C-93.7096 0.5 -162.5 69.6694 -162.5 155Z" stroke="#BF271B"/>
<path d="M-119.404 155C-119.404 240.331 -50.614 309.5 34.2373 309.5C119.089 309.5 187.879 240.331 187.879 155C187.879 69.6694 119.089 0.5 34.2373 0.5C-50.614 0.5 -119.404 69.6694 -119.404 155Z" stroke="#BF271B"/>
<path d="M-76.3088 155C-76.3088 240.331 -7.51843 309.5 77.3329 309.5C162.184 309.5 230.975 240.331 230.975 155C230.975 69.6694 162.184 0.5 77.3329 0.5C-7.51843 0.5 -76.3088 69.6694 -76.3088 155Z" stroke="#BF271B"/>
<path d="M-33.2208 155C-33.2208 240.331 35.5696 309.5 120.421 309.5C205.272 309.5 274.063 240.331 274.063 155C274.063 69.6694 205.272 0.5 120.421 0.5C35.5696 0.5 -33.2208 69.6694 -33.2208 155Z" stroke="#BF271B"/>
<path d="M9.87482 155C9.87482 240.331 78.6652 309.5 163.517 309.5C248.368 309.5 317.158 240.331 317.158 155C317.158 69.6694 248.368 0.5 163.517 0.5C78.6652 0.5 9.87482 69.6694 9.87482 155Z" stroke="#BF271B"/>
<path d="M52.9705 155C52.9705 240.331 121.761 309.5 206.612 309.5C291.464 309.5 360.254 240.331 360.254 155C360.254 69.6694 291.464 0.5 206.612 0.5C121.761 0.5 52.9705 69.6694 52.9705 155Z" stroke="#BF271B"/>
<path d="M98.3836 155C98.3836 240.331 167.174 309.5 252.025 309.5C336.877 309.5 405.667 240.331 405.667 155C405.667 69.6694 336.877 0.5 252.025 0.5C167.174 0.5 98.3836 69.6694 98.3836 155Z" stroke="#BF271B"/>
<path d="M143.804 155C143.804 240.331 212.594 309.5 297.445 309.5C382.297 309.5 451.087 240.331 451.087 155C451.087 69.6694 382.297 0.5 297.445 0.5C212.594 0.5 143.804 69.6694 143.804 155Z" stroke="#BF271B"/>
<path d="M189.217 155C189.217 240.331 258.007 309.5 342.858 309.5C427.71 309.5 496.5 240.331 496.5 155C496.5 69.6694 427.71 0.5 342.858 0.5C258.007 0.5 189.217 69.6694 189.217 155Z" stroke="#BF271B"/>
</svg>
