<svg width="200" height="36" viewBox="0 0 200 36" fill="none" xmlns="http://www.w3.org/2000/svg">
<g id="logo" clip-path="url(#clip0_22_20)">
<g id="Group">
<g id="Group_2">
<path id="Vector" d="M10.992 7.88257C15.4155 7.88257 17.9625 9.85337 19.571 11.8242C20.5094 13.0067 21.0456 14.3205 21.4477 15.7658H15.6836C15.4155 15.2402 15.1475 14.7147 14.7453 14.1891C13.941 13.4008 12.8686 12.6125 11.126 12.6125C8.31099 12.6125 5.89812 14.9775 5.89812 18.5249C5.89812 22.0724 8.31099 24.4373 11.126 24.4373C13.0027 24.4373 14.0751 23.649 14.7453 22.8607C15.1475 22.3351 15.4155 21.941 15.6836 21.284H21.4477C21.0456 22.7293 20.5094 24.0432 19.571 25.2256C18.0965 27.1964 15.4155 29.1672 10.992 29.1672C4.69169 29.1672 0 24.4373 0 18.5249C0 12.6125 4.82574 7.88257 10.992 7.88257Z" fill="white"/>
<path id="Vector_2" d="M33.1099 7.88257C35.3888 7.88257 36.8633 8.67089 37.9357 9.45921C38.4719 9.98476 39.0081 10.5103 39.5443 11.0359H39.6783V8.40812H45.3083V28.5103H39.6783V26.014H39.5443C39.1421 26.6709 38.6059 27.0651 37.9357 27.5906C36.8633 28.3789 35.2547 29.1672 33.1099 29.1672C27.8821 29.1672 23.7266 25.0942 23.7266 18.5249C23.7266 11.9556 27.8821 7.88257 33.1099 7.88257ZM34.5845 24.4373C37.6676 24.4373 39.8124 22.3351 39.8124 18.5249C39.8124 14.7147 37.6676 12.6125 34.5845 12.6125C31.7695 12.6125 29.6247 14.7147 29.6247 18.5249C29.6247 22.3351 31.7695 24.4373 34.5845 24.4373Z" fill="white"/>
<path id="Vector_3" d="M49.8672 8.40812H55.4972V11.2986H55.7653C56.0334 10.6417 56.3015 10.1161 56.8377 9.5906C57.642 8.80228 58.9825 7.88257 60.9932 7.88257H63.4061V13.138H60.323C57.2398 13.138 55.4972 14.8461 55.4972 17.6052V28.2475H49.8672V8.40812Z" fill="white"/>
<path id="Vector_4" d="M74.5318 7.88257C76.8106 7.88257 78.2852 8.67089 79.3576 9.45921C79.8938 9.98476 80.4299 10.5103 80.9661 11.0359H81.1002V8.40812H86.7302V35.9994H68.0975V31.2694H81.1002V25.4884H80.9661C80.564 26.014 80.0278 26.6709 79.3576 27.0651C78.2852 27.8534 76.6766 28.6417 74.5318 28.6417C69.3039 28.6417 65.1484 24.4373 65.1484 18.2621C65.1484 12.0869 69.3039 7.88257 74.5318 7.88257ZM76.1404 24.0432C78.9554 24.0432 81.2342 21.941 81.2342 18.3935C81.2342 14.8461 79.0895 12.6125 76.1404 12.6125C73.0573 12.6125 70.9125 14.7147 70.9125 18.2621C70.9125 21.8096 73.1913 24.0432 76.1404 24.0432Z" fill="white"/>
<path id="Vector_5" d="M101.338 7.88257C107.773 7.88257 112.598 12.6125 112.598 18.5249C112.598 24.4373 107.773 29.1672 101.338 29.1672C94.9039 29.1672 90.0781 24.4373 90.0781 18.5249C90.0781 12.6125 94.9039 7.88257 101.338 7.88257ZM101.338 24.4373C104.287 24.4373 106.834 22.0724 106.834 18.5249C106.834 14.9775 104.421 12.6125 101.338 12.6125C98.3891 12.6125 95.9763 14.9775 95.9763 18.5249C95.8422 22.0724 98.2551 24.4373 101.338 24.4373Z" fill="white"/>
<path id="Vector_6" d="M114.211 8.40815H116.758V4.07239H122.388V8.40815H128.152V13.1381H122.388V23.7804H128.42V28.5103H116.758V13.1381H114.211V8.40815Z" fill="#B6B6B6"/>
<path id="Vector_7" d="M134.452 0C136.194 0 137.669 1.31387 137.669 2.89051C137.669 4.46715 136.194 5.78102 134.452 5.78102C132.575 5.78102 131.234 4.46715 131.234 2.89051C131.234 1.31387 132.709 0 134.452 0Z" fill="#BF271B"/>
<path id="Vector_8" d="M141.689 8.4084H147.319V11.1675H147.453C147.855 10.5106 148.257 9.98504 148.793 9.45949C149.732 8.67117 151.206 7.75146 153.485 7.75146C156.166 7.75146 157.775 8.67117 158.847 9.59088C159.383 10.1164 159.919 10.7734 160.321 11.4303H160.59C160.992 10.7734 161.394 10.1164 162.064 9.59088C163.136 8.67117 164.745 7.75146 167.292 7.75146C172.118 7.75146 175.067 10.642 175.067 16.1602V28.3792H169.437V16.8172C169.437 13.7953 168.096 12.4814 165.549 12.4814C163.136 12.4814 161.126 14.4522 161.126 17.6055V28.3792H155.496V16.8172C155.496 13.7953 154.155 12.4814 151.608 12.4814C149.195 12.4814 147.185 14.4522 147.185 17.6055V28.3792H141.555V8.4084H141.689Z" fill="#B6B6B6"/>
<path id="Vector_9" d="M137.263 8.40894H131.633V28.5111H137.263V8.40894Z" fill="#B6B6B6"/>
<path id="Vector_10" d="M189.14 7.88257C195.575 7.88257 199.998 12.6125 199.998 18.5249V19.7074H183.913C184.315 22.2037 186.593 24.4373 189.14 24.4373C191.017 24.4373 192.089 23.9118 192.76 23.2548C193.162 22.8607 193.43 22.4665 193.698 22.0723H199.73C199.328 23.3862 198.658 24.5687 197.719 25.6198C196.111 27.3278 193.564 29.1672 189.14 29.1672C182.84 29.1672 178.148 24.4373 178.148 18.5249C178.148 12.6125 182.974 7.88257 189.14 7.88257ZM193.966 16.2913C193.564 14.3205 191.821 12.6125 189.14 12.6125C186.593 12.6125 184.717 14.3205 184.181 16.2913H193.966Z" fill="#B6B6B6"/>
</g>
</g>
</g>
<defs>
<clipPath id="clip0_22_20">
<rect width="200" height="36" fill="white"/>
</clipPath>
</defs>
</svg>
